<?xml version="1.0" standalone="no"?>
<!DOCTYPE svg PUBLIC "-//W3C//DTD SVG 1.1//EN" "http://www.w3.org/Graphics/SVG/1.1/DTD/svg11.dtd" >
<svg xmlns="http://www.w3.org/2000/svg">
<metadata></metadata>
<defs>
<font id="adihausitalic" horiz-adv-x="1081" >
<font-face units-per-em="2048" ascent="1638" descent="-410" />
<missing-glyph horiz-adv-x="483" />
<glyph horiz-adv-x="0" />
<glyph unicode="&#xd;" horiz-adv-x="483" />
<glyph unicode=" "  horiz-adv-x="483" />
<glyph unicode="&#x09;" horiz-adv-x="483" />
<glyph unicode="&#xa0;" horiz-adv-x="483" />
<glyph unicode="!" horiz-adv-x="616" d="M158 0l35 176h167l-32 -176h-170zM256 403l186 1055h166l-229 -1055h-123z" />
<glyph unicode="&#x22;" horiz-adv-x="825" d="M291 1106l71 352h154l-70 -352h-155zM621 1106l71 352h156l-72 -352h-155z" />
<glyph unicode="#" horiz-adv-x="1284" d="M143 465l25 127h190l109 299h-186l26 129h201l156 442h149l-154 -442h312l153 442h150l-154 -442h168l-26 -129h-185l-108 -299h180l-25 -127h-198l-164 -465h-148l162 465h-311l-162 -465h-151l163 465h-172zM508 592h311l109 299h-314z" />
<glyph unicode="$" horiz-adv-x="1161" d="M33 188l112 99q61 -78 135 -119t173 -47l106 557q-4 0 -19.5 4t-23.5 6q-139 35 -216 113t-77 209q0 78 28 155.5t86 144t149.5 110.5t213.5 50l35 181h117l-35 -185q100 -8 182 -46.5t148 -116.5l-107 -93q-51 59 -109.5 91t-144.5 38l-104 -546l51 -11 q162 -33 239 -117.5t77 -232.5q0 -102 -40 -184t-112 -138.5t-164 -87t-196 -34.5l-41 -221h-117l43 223q-127 8 -218 55t-171 143zM371 1016q0 -88 58 -134t155 -67l100 526q-139 -14 -226 -108t-87 -217zM555 119q150 14 247 98t97 207q0 113 -59.5 160t-182.5 73z" />
<glyph unicode="%" horiz-adv-x="1638" d="M219 922q0 41 6 71l37 203q25 133 102.5 205t208.5 72q88 0 155 -52.5t67 -163.5q0 -41 -7 -71l-38 -203q-25 -133 -102 -204.5t-208 -71.5q-88 0 -154.5 52t-66.5 163zM330 930q0 -57 28.5 -90t96.5 -33q78 0 123 47t59 129l41 211q6 28 6 55q0 57 -28.5 90t-96.5 33 q-80 0 -125 -48t-59 -128l-39 -211q-6 -27 -6 -55zM334 0l938 1458h125l-940 -1458h-123zM934 203q0 41 6 71l39 203q25 133 102.5 205t206.5 72q88 0 154.5 -52.5t66.5 -162.5q0 -41 -6 -72l-37 -203q-23 -131 -101.5 -203.5t-209.5 -72.5q-88 0 -154.5 52t-66.5 163z M1047 211q0 -57 28.5 -90t93.5 -33q80 0 125 48t60 128l39 211q6 28 6 55q0 57 -29 90t-96 33q-78 0 -123 -47t-59 -129l-41 -211q-4 -18 -4 -55z" />
<glyph unicode="&#x26;" horiz-adv-x="1441" d="M123 334q0 92 28.5 165.5t79 133t121 112t168.5 111.5l-4 8q-43 68 -67.5 127.5t-24.5 132.5q0 63 21.5 125t64.5 112t110.5 79.5t157.5 29.5q131 0 201 -77.5t70 -188.5q0 -90 -52.5 -164.5t-165.5 -144.5l-116 -74l262 -440q57 63 90 140t53 192h144q-23 -139 -71 -246 t-142 -203l163 -264h-178l-98 160q-74 -68 -187.5 -120t-250.5 -52q-166 0 -271.5 91t-105.5 255zM272 348q0 -100 65.5 -164.5t170.5 -64.5q86 0 179 36.5t181 116.5l-284 473q-164 -100 -238 -185t-74 -212zM573 1122q0 -74 78 -196q35 20 46.5 27.5t21.5 14.5t14 9 q86 53 129 102t43 123q0 70 -38 105.5t-97 35.5q-88 0 -142.5 -62t-54.5 -159z" />
<glyph unicode="'" horiz-adv-x="495" d="M291 1106l71 352h154l-70 -352h-155z" />
<glyph unicode="(" horiz-adv-x="581" d="M109 90q0 29 4 62.5t14 80.5l209 1047q14 63 29.5 107.5t46.5 91.5q29 41 73.5 86t96.5 86l82 -109q-49 -41 -78 -69.5t-49 -57.5q-23 -33 -37.5 -65.5t-24.5 -81.5l-207 -1043q-14 -72 -14 -114q0 -43 18.5 -93.5t73.5 -113.5l-106 -97q-76 90 -103.5 157t-27.5 126z " />
<glyph unicode=")" horiz-adv-x="581" d="M2 -84q49 41 78 69.5t49 57.5q23 33 37 65.5t24 81.5l209 1043q14 72 15 115q0 43 -19.5 92t-75.5 114l109 97q76 -88 102.5 -156t26.5 -127q0 -31 -3 -63.5t-13 -79.5l-209 -1047q-12 -61 -28.5 -106t-49.5 -92q-29 -41 -74 -86.5t-96 -86.5z" />
<glyph unicode="*" horiz-adv-x="923" d="M231 1038l254 80l-202 170l71 84l195 -180l47 262l111 -22l-60 -261l248 93l37 -105l-254 -80l203 -170l-72 -84l-195 183l-47 -265l-110 23l59 260l-248 -92z" />
<glyph unicode="+" horiz-adv-x="1015" d="M98 481l25 131h342l74 363h133l-72 -363h338l-27 -131h-338l-71 -362h-135l71 362h-340z" />
<glyph unicode="," horiz-adv-x="516" d="M14 -295l97 477h172l-62 -313z" />
<glyph unicode="-" horiz-adv-x="829" d="M143 485l27 133h537l-27 -133h-537z" />
<glyph unicode="." horiz-adv-x="526" d="M70 0l39 195h184l-37 -195h-186z" />
<glyph unicode="/" horiz-adv-x="698" d="M-131 -152l907 1762h146l-906 -1762h-147z" />
<glyph unicode="0" d="M133 305q0 45 10 96l129 660q23 117 72 197.5t113.5 127t132 65.5t133.5 19q133 0 226 -80.5t93 -236.5q0 -45 -10 -96l-131 -660q-23 -117 -73 -197.5t-113.5 -126.5t-131 -65.5t-132.5 -19.5q-133 0 -225.5 81t-92.5 236zM274 309q0 -98 54.5 -146t128.5 -48 q47 0 94 14t89 47t73.5 88t46.5 131l129 664q10 47 10 90q0 98 -53 146t-127 48q-47 0 -94 -14t-89 -47t-74 -87t-46 -132l-129 -664q-12 -57 -13 -90z" />
<glyph unicode="1" d="M383 1055l33 174l309 229h145l-266 -1327l-26 -131h-144l27 129l233 1159z" />
<glyph unicode="2" d="M66 0l26 127l682 729q70 74 99.5 135.5t29.5 143.5q0 102 -50 155t-144 53q-106 0 -185.5 -63t-107.5 -199h-146q37 190 154 289.5t291 99.5q156 0 245 -86.5t89 -246.5q0 -117 -47.5 -201t-137.5 -178l-592 -631h596l-24 -127h-778z" />
<glyph unicode="3" d="M90 307q0 37 2 58h141v-5q-4 -25 -4 -41q0 -92 56.5 -149t160.5 -57q70 0 131.5 28.5t106.5 79.5t69.5 119t24.5 141q0 203 -223 203h-33l25 123h33q66 0 121 27.5t95 75.5t61.5 109.5t21.5 129.5q0 92 -52.5 144.5t-148.5 52.5q-100 0 -179 -66t-108 -174h-147 q47 182 166.5 274.5t285.5 92.5q147 0 235.5 -85.5t88.5 -232.5q0 -139 -65.5 -249.5t-188.5 -157.5q156 -59 156 -265q0 -94 -32 -183t-94.5 -159.5t-151.5 -112.5t-198 -42q-176 0 -266 88t-90 233z" />
<glyph unicode="4" d="M55 236l25 131l711 1091h157l-708 -1091h399l80 401h141l-80 -401h174l-28 -131h-172l-47 -236h-140l47 236h-559z" />
<glyph unicode="5" d="M141 291v12q2 25 2 41h140q-2 -16 -2 -43q0 -84 48 -136t138 -52q78 0 133 27.5t92 77.5t59.5 114.5t39.5 148.5q18 100 18 158q0 94 -41 147.5t-137 53.5q-88 0 -156.5 -37t-112.5 -111h-126l34 174l119 592h701l-25 -127h-573l-93 -463q55 51 114.5 73t143.5 22 q147 0 222 -86t75 -220q0 -74 -18 -176q-25 -129 -62.5 -221t-101.5 -156q-119 -119 -303 -118q-168 0 -248 87t-80 218z" />
<glyph unicode="6" d="M135 352q0 96 34 182.5t118 213.5l473 710h155l-440 -657q59 23 113 22q154 0 242 -101t88 -263q0 -100 -33 -186.5t-91.5 -151t-135 -99t-162.5 -34.5q-94 0 -164 30.5t-113 83t-63.5 117t-20.5 133.5zM276 362q0 -106 56.5 -176.5t154.5 -70.5q66 0 120.5 29.5t91 78.5 t55 111t18.5 123q0 106 -55 177t-156 71q-72 0 -126 -32t-89 -83t-52.5 -111.5t-17.5 -116.5z" />
<glyph unicode="7" d="M231 0l734 1331h-486l-43 -219h-139l68 346h782l-25 -127l-733 -1331h-158z" />
<glyph unicode="8" d="M106 336q0 147 72 258t213 172q-57 43 -90 103.5t-33 142.5q0 96 33 181t92.5 147.5t141 96t176.5 33.5q145 0 239 -89t94 -240q0 -131 -67 -238t-182 -158q72 -51 107.5 -119.5t35.5 -170.5q0 -88 -29.5 -172t-90 -150.5t-149.5 -105.5t-204 -39q-152 0 -255.5 89 t-103.5 259zM250 346q0 -106 61.5 -168.5t161.5 -62.5q145 0 233.5 98.5t88.5 245.5q0 106 -60.5 168.5t-161.5 62.5q-143 0 -233 -99t-90 -245zM410 1020q0 -92 53 -148.5t147 -56.5q68 0 122 27.5t92 75t57.5 105t19.5 116.5q0 92 -52 148t-147 56q-68 0 -123 -27.5 t-91.5 -74.5t-57 -105.5t-20.5 -115.5z" />
<glyph unicode="9" d="M256 999q0 100 33 187.5t91 151t135 98t163 34.5q94 0 163.5 -30.5t112.5 -82.5t63.5 -116.5t20.5 -134.5q0 -96 -33.5 -182t-119.5 -213l-473 -711h-154l438 657q-31 -12 -54.5 -17t-55.5 -5q-154 0 -242 101.5t-88 262.5zM401 1001q0 -106 56.5 -176.5t154.5 -70.5 q72 0 126.5 31.5t89 83t52 112t17.5 115.5q0 106 -56.5 176.5t-156.5 70.5q-66 0 -120 -29.5t-90 -78.5t-54.5 -109.5t-18.5 -124.5z" />
<glyph unicode=":" horiz-adv-x="577" d="M125 0l39 195h184l-39 -195h-184zM240 614l41 195h184l-39 -195h-186z" />
<glyph unicode=";" horiz-adv-x="577" d="M74 -295l94 477h174l-61 -313zM244 614l39 195h184l-39 -195h-184z" />
<glyph unicode="&#x3c;" horiz-adv-x="1015" d="M160 498l26 127l707 340l-31 -160l-534 -254l436 -258l-29 -146z" />
<glyph unicode="=" horiz-adv-x="1015" d="M68 315l26 134h813l-28 -134h-811zM131 655l29 131h813l-27 -131h-815z" />
<glyph unicode="&#x3e;" horiz-adv-x="1015" d="M152 133l30 160l533 254l-436 258l30 145l574 -350l-27 -127z" />
<glyph unicode="?" horiz-adv-x="970" d="M262 1106q33 172 148.5 268t289.5 96q127 0 216.5 -82t89.5 -219q0 -90 -36 -163.5t-108 -157.5l-207 -242q-20 -23 -35.5 -56.5t-23.5 -62.5l-21 -86h-143l21 93q12 61 33.5 103t64.5 91l205 236q55 63 79.5 116.5t24.5 120.5q0 78 -48 130t-134 52q-102 0 -174 -63 t-94 -174h-148zM354 0l35 176h168l-33 -176h-170z" />
<glyph unicode="@" horiz-adv-x="1570" d="M150 561q0 186 68.5 356t197.5 300q123 123 268 188t299 65q264 0 416.5 -144t152.5 -396q0 -133 -60 -267.5t-159 -232.5q-57 -57 -122.5 -93t-129.5 -36q-72 0 -106.5 29.5t-34.5 70.5v27q-31 -45 -100.5 -86t-128.5 -41q-106 0 -169 63.5t-63 176.5q0 119 54.5 260 t138.5 225q123 123 270 123q66 0 117 -42t57 -89l35 108h119l-111 -323l-82 -242q-10 -33 -17 -58.5t-7 -43.5q0 -45 51 -45q63 0 145 82q84 84 132.5 196.5t48.5 233.5q0 188 -122 309t-327 121q-127 0 -249 -54.5t-222 -154.5q-111 -111 -170 -260.5t-59 -325.5 q0 -98 33.5 -183t96 -147.5t149.5 -97.5t190 -35q152 0 297 30t247 87l33 -106q-106 -61 -264 -91t-320 -30q-133 0 -242.5 41t-188.5 116.5t-120.5 182t-41.5 233.5zM610 549q0 -57 32 -97t81 -40q41 0 80 22.5t80 63.5q68 68 118 211l5 10q16 53 24 84q14 57 14 90 q0 59 -31.5 100t-82.5 41q-86 0 -164 -78q-68 -68 -112 -184.5t-44 -222.5z" />
<glyph unicode="A" horiz-adv-x="1189" d="M-74 0l797 1458h125l219 -1458h-152l-45 332h-606l-178 -332h-160zM330 457h526l-108 786z" />
<glyph unicode="B" horiz-adv-x="1302" d="M100 0l27 129l240 1200l26 129h490q111 0 184.5 -31.5t113.5 -81t54 -104.5t14 -111q0 -53 -13 -107t-44 -106.5t-85 -98.5t-130 -75q84 -39 127 -106.5t43 -169.5t-35 -188t-98.5 -148.5t-150.5 -96.5t-187 -34h-576zM274 131h398q143 0 234 93.5t91 238.5 q0 102 -61.5 158.5t-169.5 56.5h-381zM412 811h364q147 0 234.5 90t87.5 219q0 41 -10.5 77t-36 65.5t-72.5 47t-115 17.5h-348z" />
<glyph unicode="C" horiz-adv-x="1243" d="M141 381q0 45 10.5 123t38.5 225q25 135 44.5 220t43 150.5t54 116t76.5 95.5q74 74 176 116.5t211 42.5q203 0 310 -117.5t107 -310.5h-149q0 137 -71.5 218t-196.5 81q-160 0 -283 -122q-59 -59 -94 -162t-78 -328q-27 -139 -38 -216t-11 -128q0 -123 80 -195.5 t194 -72.5q139 0 240.5 86t148.5 213h152q-63 -201 -210.5 -314.5t-336.5 -113.5q-178 0 -298 105.5t-120 287.5z" />
<glyph unicode="D" horiz-adv-x="1308" d="M100 0l27 129l240 1198l26 131h455q80 0 151.5 -20.5t130 -66.5t92 -122.5t33.5 -187.5q0 -55 -9 -121t-34 -195q-25 -133 -49 -227t-52 -163.5t-62.5 -123t-85.5 -98.5q-72 -66 -170.5 -99.5t-208.5 -33.5h-484zM274 129h301q84 0 158 24.5t135 79.5q66 59 110 174 t85 338q27 137 36 199t9 111q0 129 -71.5 201.5t-217.5 72.5h-303z" />
<glyph unicode="E" horiz-adv-x="1171" d="M100 0l27 129l240 1200l26 129h858l-26 -129h-709l-106 -528h608l-25 -129h-608l-111 -543h723l-24 -129h-873z" />
<glyph unicode="F" horiz-adv-x="1126" d="M100 0l27 129l240 1200l26 129h858l-26 -129h-709l-108 -551h606l-27 -129h-608l-105 -520l-26 -129h-148z" />
<glyph unicode="G" horiz-adv-x="1267" d="M141 381q0 53 11.5 129t37.5 219q27 143 47.5 229t42 148.5t51 110t75.5 92.5q74 74 177 117.5t214 43.5q203 0 310 -118.5t107 -311.5h-149q0 137 -72.5 219t-195.5 82q-162 0 -285 -122q-31 -31 -53.5 -69t-42 -94.5t-38 -134t-40.5 -192.5q-27 -141 -37 -216t-10 -124 q0 -131 85 -201.5t195 -70.5q59 0 121 22.5t118 69.5t100 124t65 181l24 121h-342l23 127h489l-22 -119l-21 -113q-25 -131 -67.5 -222t-114.5 -163t-169 -114.5t-214 -42.5q-178 0 -299 106.5t-121 286.5z" />
<glyph unicode="H" horiz-adv-x="1353" d="M100 0l27 129l240 1200l26 129h148l-25 -129l-104 -528h655l104 528l27 129h148l-27 -129l-240 -1200l-26 -129h-148l27 129l108 543h-655l-111 -543l-26 -129h-148z" />
<glyph unicode="I" horiz-adv-x="548" d="M100 0l27 129l240 1200l26 129h148l-27 -129l-240 -1200l-26 -129h-148z" />
<glyph unicode="J" horiz-adv-x="974" d="M-25 123l109 92q43 -49 92 -73.5t121 -24.5q127 0 218 88t124 256l174 868l25 129h149l-26 -129l-179 -893q-43 -219 -174 -333.5t-323 -114.5q-106 0 -182 34.5t-128 100.5z" />
<glyph unicode="K" horiz-adv-x="1271" d="M100 0l27 129l240 1200l26 129h148l-27 -129l-139 -700l805 829h186l-29 -31l-520 -540l35 -94l301 -793h-162l-291 784l-370 -374l-56 -281l-26 -129h-148z" />
<glyph unicode="L" horiz-adv-x="1118" d="M100 0l27 129l240 1200l26 129h148l-27 -129l-240 -1200h713l-24 -129h-863z" />
<glyph unicode="M" horiz-adv-x="1587" d="M100 0l27 129l199 991l67 338h144l243 -1014l656 1014h145l-266 -1329l-27 -129h-149l26 129l199 981l-549 -848h-127l-213 860l-199 -993l-26 -129h-150z" />
<glyph unicode="N" horiz-adv-x="1425" d="M100 0l27 129l266 1329h137l502 -1182l209 1053l27 129h149l-26 -129l-267 -1329h-137l-502 1182l-211 -1053l-26 -129h-148z" />
<glyph unicode="O" horiz-adv-x="1263" d="M141 381q0 49 10.5 123t38.5 225q25 133 45.5 220t43 150.5t53 114t76.5 95.5q76 76 180 118.5t215 42.5q176 0 290.5 -108.5t114.5 -284.5q0 -45 -11 -116.5t-40 -231.5q-25 -133 -45 -220t-42.5 -150.5t-53.5 -113.5t-76 -95q-76 -76 -180.5 -119t-214.5 -43 q-176 0 -290 109.5t-114 283.5zM291 389q0 -127 76.5 -199.5t181.5 -72.5q168 0 289 125q31 31 52 66.5t39.5 90t37 134t41.5 196.5q29 150 39 220.5t10 119.5q0 127 -77 199.5t-181 72.5q-168 0 -289 -124q-29 -29 -51.5 -66t-41 -91t-37 -134t-40.5 -197 q-29 -147 -39 -219t-10 -121z" />
<glyph unicode="P" horiz-adv-x="1224" d="M100 0l27 129l240 1200l26 129h496q96 0 167.5 -28.5t117 -77.5t66 -112.5t20.5 -133.5q0 -104 -35 -194.5t-101.5 -158t-163 -105.5t-217.5 -38h-372l-97 -481l-26 -129h-148zM397 739h353q160 0 260 101.5t100 259.5q0 98 -58.5 162.5t-183.5 64.5h-354z" />
<glyph unicode="Q" horiz-adv-x="1263" d="M141 381q0 49 10.5 123t38.5 225q25 133 45.5 220t43 150.5t53 114t76.5 95.5q76 76 180 118.5t215 42.5q176 0 290.5 -108.5t114.5 -284.5q0 -45 -11 -116.5t-40 -231.5q-25 -129 -43 -212t-39.5 -144.5t-49.5 -111.5t-67 -93l123 -160l-100 -88l-125 162 q-139 -94 -311 -94q-176 0 -290 109.5t-114 283.5zM291 389q0 -127 76.5 -199.5t181.5 -72.5q125 0 225 76l-145 188l100 88l141 -182q43 55 72 150t66 292q29 150 39 220.5t10 119.5q0 127 -77 199.5t-181 72.5q-168 0 -289 -124q-29 -29 -51.5 -66t-41 -91t-37 -134 t-40.5 -197q-29 -147 -39 -219t-10 -121z" />
<glyph unicode="R" horiz-adv-x="1282" d="M100 0l27 129l240 1200l26 129h502q100 0 171 -27.5t113 -74.5t60 -106.5t18 -127.5q0 -166 -102 -294t-283 -162l213 -666h-163l-201 655h-340l-107 -526l-26 -129h-148zM406 782h364q158 0 248 100.5t90 231.5q0 100 -58.5 156.5t-172.5 56.5h-361z" />
<glyph unicode="S" horiz-adv-x="1144" d="M33 188l112 99q68 -84 152 -126t201 -42q162 0 273.5 86t111.5 219q0 104 -52.5 152.5t-154.5 72.5l-68 17l-69 16q-59 14 -113.5 36.5t-100.5 61.5t-74 96.5t-28 133.5q0 80 31 161.5t94.5 149.5t163.5 108.5t233 40.5q117 0 214 -39.5t171 -127.5l-106 -91 q-57 66 -122.5 98.5t-170.5 32.5q-162 0 -264 -102q-47 -45 -71.5 -104.5t-24.5 -120.5q0 -82 55 -130t154 -71l67 -14l70 -17q166 -37 240.5 -119.5t74.5 -234.5q0 -104 -42 -187t-118.5 -140.5t-176 -86t-212.5 -28.5q-154 0 -257 47t-193 153z" />
<glyph unicode="T" horiz-adv-x="1064" d="M223 1327l27 131h948l-27 -131h-397l-239 -1198l-27 -129h-150l27 129l240 1198h-402z" />
<glyph unicode="U" horiz-adv-x="1329" d="M168 383q0 29 4 61.5t10 63.5l189 950h149l-192 -964q0 -10 -4 -41q-6 -43 -7 -64q0 -111 67 -190.5t204 -79.5q147 0 262 98t151 287l164 825l25 129h149l-24 -129l-170 -850q-47 -236 -199.5 -363.5t-372.5 -127.5q-76 0 -147.5 23.5t-129.5 72.5t-93 124t-35 175z" />
<glyph unicode="V" horiz-adv-x="1062" d="M205 1458h149l131 -1192l590 1192h162l-739 -1458h-123z" />
<glyph unicode="W" horiz-adv-x="1669" d="M221 1458h154l41 -1182l508 1110l32 72h134l4 -72l71 -1110l498 1182h160l-633 -1458h-139l-78 1174l-547 -1174h-137z" />
<glyph unicode="X" horiz-adv-x="1077" d="M-72 0l572 760l-267 698h166l207 -581l420 581h176l-536 -719l288 -739h-166l-229 618l-457 -618h-174z" />
<glyph unicode="Y" horiz-adv-x="1003" d="M205 1458h155l193 -704l459 704h166l-578 -862l-121 -596h-149l123 606z" />
<glyph unicode="Z" horiz-adv-x="1089" d="M12 0l27 125l2 12l915 1190h-663l24 131h840l-24 -123l-9 -10l-917 -1194h698l-26 -131h-867z" />
<glyph unicode="[" horiz-adv-x="614" d="M49 -152l27 132l299 1507l24 123h342l-26 -127h-197l-301 -1508h213l-24 -127h-357z" />
<glyph unicode="\" horiz-adv-x="686" d="M219 1602h135l203 -1754h-135z" />
<glyph unicode="]" horiz-adv-x="614" d="M-37 -152l25 121h202l304 1520h-222l25 121h358l-24 -121l-303 -1524l-23 -117h-342z" />
<glyph unicode="^" horiz-adv-x="1052" d="M207 846l444 624h137l197 -624h-139l-148 475l-338 -475h-153z" />
<glyph unicode="_" horiz-adv-x="1015" d="M-168 -332l23 101h1015l-20 -101h-1018z" />
<glyph unicode="`" horiz-adv-x="972" d="M446 1516h164l107 -310h-123z" />
<glyph unicode="a" horiz-adv-x="1026" d="M51 233q0 68 21.5 129.5t68.5 106.5q59 57 133 81.5t164 24.5h295l23 107q8 37 8 68q0 72 -53.5 110.5t-149.5 38.5q-90 0 -152.5 -28.5t-119.5 -92.5l-84 99q70 76 154.5 110.5t209.5 34.5q61 0 118.5 -11.5t108 -40t81 -80.5t30.5 -130q0 -10 -4 -37q-6 -31 -6 -43 l-41 -209l-94 -471h-141l22 100q-57 -57 -125.5 -84.5t-163.5 -27.5q-131 0 -217 59t-86 186zM193 242q0 -66 48 -98.5t152 -32.5q137 0 215 77q64 60 82 164l23 117h-260q-117 0 -188.5 -59.5t-71.5 -167.5z" />
<glyph unicode="b" horiz-adv-x="1062" d="M76 0l100 506l191 952h143l-113 -563q43 55 108.5 91t168.5 36q139 0 214 -82t75 -238q0 -31 -5.5 -84t-17.5 -112q-29 -147 -69 -247.5t-105 -166.5q-53 -53 -123 -78.5t-145 -25.5q-84 0 -150.5 32.5t-103.5 108.5l-27 -129h-141zM297 326q0 -96 42 -153.5t140 -57.5 q74 0 128.5 30.5t90 84t58 121t39.5 155.5q10 53 16 97t6 81q0 96 -41 153.5t-139 57.5q-74 0 -128 -29.5t-91 -83t-59.5 -122t-39.5 -154.5q-10 -51 -16 -97.5t-6 -82.5z" />
<glyph unicode="c" horiz-adv-x="954" d="M102 350q0 35 3.5 76t11.5 80q45 250 181 383t333 133q100 0 169 -38t122 -112l-107 -90q-39 59 -85 86t-114 27q-127 0 -223 -98q-51 -53 -82.5 -130t-48.5 -161q-16 -86 -16 -152q0 -119 63.5 -179t155.5 -60q72 0 128 27.5t116 88.5l84 -102q-141 -141 -336 -141 q-172 0 -263.5 101t-91.5 261z" />
<glyph unicode="d" horiz-adv-x="1062" d="M102 305q0 92 23 201q29 143 68.5 243.5t105.5 165.5q57 57 123.5 82t146.5 25t145.5 -31.5t104.5 -107.5l117 575h143l-190 -952l-101 -506h-141l25 121q-63 -76 -131 -104.5t-150 -28.5q-152 0 -220.5 87t-68.5 230zM248 324q0 -94 41 -151.5t139 -57.5q74 0 128 30.5 t91 84t59.5 122t38.5 154.5q10 53 16.5 98t6.5 84q0 94 -42 150.5t-140 56.5q-74 0 -128.5 -29.5t-90 -83t-58 -121t-39.5 -155.5q-10 -51 -16 -97.5t-6 -84.5z" />
<glyph unicode="e" horiz-adv-x="1036" d="M102 336q0 119 29 239.5t89.5 222t156.5 163t223 61.5q156 0 242 -97t86 -249q0 -39 -6.5 -94.5t-18.5 -112.5h-649q-12 -63 -12 -127q0 -104 54 -166.5t163 -62.5q86 0 150.5 28.5t131.5 89.5l86 -96q-156 -147 -381 -147q-156 0 -250 89t-94 259zM272 573h508 q0 14 4 45q4 35 4 58q0 111 -55 167t-139 56q-113 0 -196 -80t-126 -246z" />
<glyph unicode="f" horiz-adv-x="612" d="M104 0l179 893h-121l20 108h121l41 203q29 141 108.5 199.5t184.5 58.5h108l-24 -123h-74q-61 0 -103 -34.5t-57 -108.5l-38 -195h208l-22 -108h-209l-178 -893h-144z" />
<glyph unicode="g" horiz-adv-x="1058" d="M-2 -326l102 90q39 -49 87.5 -75.5t119.5 -26.5q117 0 206 77t124 238l33 156q-51 -63 -117 -96t-162 -33q-135 0 -212 82t-77 229q0 80 23 199q27 141 66.5 240.5t103.5 163.5q55 55 124.5 79.5t145.5 24.5q84 0 150.5 -31.5t103.5 -109.5l25 129h141l-100 -498 l-107 -535q-25 -129 -76 -216t-117.5 -135t-136 -67.5t-141.5 -19.5q-195 0 -309 135zM248 336q0 -94 42 -149.5t140 -55.5q70 0 123 31t90 83t60.5 119.5t39.5 149.5q23 117 23 176q0 205 -182 205q-72 0 -125 -29.5t-90 -83t-59.5 -120t-39.5 -150.5q-22 -112 -22 -171v-5 z" />
<glyph unicode="h" horiz-adv-x="1095" d="M76 0l26 129l240 1200l25 129h143l-27 -129l-84 -426q53 57 125 88t168 31q121 0 200 -76t79 -209q0 -45 -10 -100l-130 -637h-143l125 623q10 55 10 94q0 88 -50 133t-132 45q-33 0 -76 -10.5t-87 -39t-82 -84.5t-54 -143l-96 -489l-27 -129h-143z" />
<glyph unicode="i" horiz-adv-x="493" d="M76 0l26 129l174 881h144l-174 -881l-27 -129h-143zM322 1296l28 150h164l-31 -150h-161z" />
<glyph unicode="j" horiz-adv-x="493" d="M-219 -451l24 123h70q70 0 110 37t54 117l61 303l176 881h144l-174 -881l-64 -317q-53 -262 -297 -263h-104zM322 1296l28 150h164l-31 -150h-161z" />
<glyph unicode="k" horiz-adv-x="1050" d="M76 0l26 129l240 1200l25 129h143l-27 -129l-166 -835l525 514h184l-401 -392l272 -616h-166l-217 524l-235 -223l-35 -172l-25 -129h-143z" />
<glyph unicode="l" horiz-adv-x="583" d="M117 193q0 47 8 81l211 1055l26 129h144l-27 -129l-211 -1055q-4 -23 -6 -37t-2 -30q0 -41 24.5 -62.5t86.5 -21.5h84l-25 -123h-106q-37 0 -73 10t-66.5 31.5t-49 59.5t-18.5 92z" />
<glyph unicode="m" horiz-adv-x="1708" d="M76 0l123 621l77 389h142l-23 -113q109 125 299 125q178 0 252 -168q68 84 151 126t203 42q123 0 203 -77t80 -208q0 -49 -10 -100l-127 -637h-146l125 623q12 66 13 94q0 86 -51.5 132t-133.5 46q-33 0 -74.5 -10.5t-85.5 -39t-82 -84.5t-55 -143l-125 -618h-143 l125 623q10 55 10 94q0 88 -50 133t-132 45q-33 0 -76 -10.5t-87 -39t-82 -84.5t-54 -143l-123 -618h-143z" />
<glyph unicode="n" horiz-adv-x="1095" d="M76 0l125 623l75 387h142l-23 -113q109 125 299 125q119 0 198 -76t79 -209q0 -45 -10 -100l-130 -637h-143l125 623q10 55 10 94q0 88 -50 133t-132 45q-33 0 -76 -10.5t-87 -39t-82 -84.5t-54 -143l-123 -618h-143z" />
<glyph unicode="o" horiz-adv-x="1028" d="M102 324q0 43 6.5 92t12.5 90q31 158 78 253t112 154q61 55 135 82t154 27q51 0 105.5 -14.5t104.5 -51t83 -103.5t33 -165q0 -43 -5.5 -92t-13.5 -90q-31 -158 -78 -253t-112 -155q-122 -110 -286 -110h-3q-49 0 -104.5 14t-105.5 52t-83 104.5t-33 165.5zM244 328 q0 -109 56 -161t138 -52q51 0 102.5 22.5t86.5 57.5q47 47 78.5 118.5t56.5 192.5q22 117 22 176q0 109 -56 161t-138 52q-51 0 -101.5 -20.5t-87.5 -57.5q-47 -47 -78.5 -118.5t-56.5 -192.5q-22 -112 -22 -173v-5z" />
<glyph unicode="p" horiz-adv-x="1062" d="M-14 -449l190 959l100 500h142l-25 -119q63 76 132 103.5t149 27.5q152 0 220.5 -87t68.5 -228q0 -43 -5.5 -90.5t-17.5 -110.5q-29 -145 -69 -245.5t-105 -166.5q-57 -57 -124 -81.5t-146 -24.5q-80 0 -145.5 31.5t-104.5 107.5l-117 -576h-143zM297 324 q0 -92 42 -150.5t140 -58.5q74 0 128.5 30.5t90 84t58 121t39.5 155.5q10 53 16 98t6 84q0 94 -41 150.5t-139 56.5q-74 0 -128 -29.5t-91 -83t-59.5 -122t-39.5 -154.5q-10 -51 -16 -97.5t-6 -84.5z" />
<glyph unicode="q" horiz-adv-x="1062" d="M100 307q0 33 5.5 86t17.5 113q29 147 68.5 247.5t105.5 166.5q53 53 122.5 77.5t147.5 24.5q84 0 150.5 -32.5t101.5 -108.5l27 129h143l-100 -504l-191 -955h-145l113 566q-43 -55 -108.5 -92t-168.5 -37q-139 0 -214 82t-75 237zM246 326q0 -96 41 -153.5t139 -57.5 q74 0 128 30.5t91 84t59.5 122t38.5 154.5q10 53 16.5 97t6.5 81q0 96 -42 153.5t-140 57.5q-74 0 -128.5 -29.5t-90 -83t-58 -121t-39.5 -155.5q-10 -51 -16 -97.5t-6 -82.5z" />
<glyph unicode="r" horiz-adv-x="817" d="M76 0l26 129l174 881h142l-25 -123q47 63 120 99t163 36q137 0 219 -94l-117 -105q-25 33 -59.5 52.5t-83.5 19.5q-106 0 -188 -79t-105 -198l-96 -489l-27 -129h-143z" />
<glyph unicode="s" horiz-adv-x="964" d="M10 133l107 92q51 -59 115.5 -86.5t162.5 -27.5q139 0 215 62.5t76 139.5q0 63 -35 90t-106 37l-68 11l-69 10q-74 10 -125.5 33.5t-79 54.5t-37.5 63.5t-10 67.5q0 59 24.5 121.5t69.5 107.5q113 113 319 113q199 0 320 -113l-103 -88q-49 43 -102 60.5t-133 17.5 q-119 0 -185.5 -60.5t-66.5 -140.5q0 -92 150 -114l67 -9l68 -10q133 -18 189 -76.5t56 -171.5q0 -57 -23.5 -113.5t-76.5 -105.5q-55 -55 -147.5 -82.5t-198.5 -27.5q-240 0 -373 145z" />
<glyph unicode="t" horiz-adv-x="653" d="M147 193q0 16 5 45q4 27 4 36l123 619h-125l20 108h127l64 316h143l-64 -316h199l-22 -108h-197l-125 -619q-8 -39 -8 -65q0 -43 25.5 -64.5t86.5 -21.5h82l-26 -123h-103q-37 0 -72.5 10t-66.5 31.5t-50.5 59.5t-19.5 92z" />
<glyph unicode="u" horiz-adv-x="1095" d="M123 272q0 35 10 93l2 8l127 637h144l-125 -623q-10 -55 -11 -94q0 -86 51.5 -132t133.5 -46q33 0 74.5 10t85.5 40t82 85t55 141l122 619h146l-201 -1010h-141l20 113q-109 -125 -297 -125q-121 0 -199.5 75.5t-78.5 208.5z" />
<glyph unicode="v" horiz-adv-x="870" d="M123 1010h145l103 -813l420 813h159l-549 -1010h-129z" />
<glyph unicode="w" horiz-adv-x="1409" d="M125 1010h145l64 -807l409 807h117l96 -807l375 807h152l-490 -1010h-131l-98 782l-404 -782h-131z" />
<glyph unicode="x" horiz-adv-x="937" d="M-35 0l422 524l-221 486h166l160 -379l288 379h176l-403 -500l233 -510h-168l-165 401l-312 -401h-176z" />
<glyph unicode="y" horiz-adv-x="868" d="M-84 -430l27 127h43q70 0 105.5 27.5t76.5 105.5l100 193l-145 987h143l105 -813l417 813h158l-530 -987l-142 -265q-25 -45 -45 -73.5t-41 -46.5q-39 -35 -88 -51.5t-120 -16.5h-64z" />
<glyph unicode="z" horiz-adv-x="901" d="M0 0l25 121l673 762h-505l24 127h682l-25 -121l-675 -762h536l-24 -127h-711z" />
<glyph unicode="{" horiz-adv-x="692" d="M127 670l27 127h49q55 0 98 39q39 33 57 122l78 388q16 88 34.5 132t59.5 78q63 53 195 54h88l-27 -127h-51q-82 0 -110.5 -31t-46.5 -121l-80 -397q-18 -92 -57.5 -139t-108.5 -68q49 -27 68.5 -63.5t19.5 -81.5q0 -12 -2 -34t-4 -34l-76 -379q-10 -51 -10 -80 q0 -47 24.5 -63.5t83.5 -16.5h68l-25 -127h-82q-121 0 -169 52.5t-48 132.5q0 16 6 49q6 29 7 41l77 385q4 12 4 33v20q-2 14 -2 19q0 37 -24.5 63.5t-79.5 26.5h-41z" />
<glyph unicode="|" horiz-adv-x="634" d="M117 -152l350 1762h143l-352 -1762h-141z" />
<glyph unicode="}" horiz-adv-x="692" d="M-29 -152l25 127h53q84 0 111.5 31t46.5 121l80 397q18 92 57 139.5t109 67.5q-49 27 -68.5 63.5t-19.5 82.5q0 12 2 33.5t4 33.5l75 379q10 51 11 80q0 47 -24.5 63.5t-84.5 16.5h-67l24 127h82q63 0 106.5 -15.5t67 -42t32.5 -58.5t9 -69q0 -16 -6 -49q-4 -29 -4 -41 l-78 -385q-4 -12 -4 -30q0 -2 2 -19v-22q0 -37 23.5 -64t78.5 -27h43l-26 -126h-49q-57 0 -101 -39q-39 -33 -57 -123l-76 -387q-16 -88 -34.5 -132t-59.5 -79q-63 -53 -195 -54h-88z" />
<glyph unicode="~" horiz-adv-x="1050" d="M96 549q90 80 151.5 106.5t119.5 26.5q51 0 92 -13.5t112 -52.5q51 -27 82 -37t62 -10q41 0 81 18.5t105 71.5l74 -96q-88 -80 -149.5 -105.5t-118.5 -25.5q-51 0 -93.5 13.5t-113.5 52.5q-49 27 -80 36t-64 9q-41 0 -79.5 -18.5t-104.5 -71.5z" />
<glyph horiz-adv-x="1316" d="M94 539l17 96h131l37 201h-129l18 96h131q31 139 70 225t106 154q74 74 176.5 116.5t210.5 42.5q203 0 310.5 -117.5t107.5 -310.5h-150q0 137 -71.5 218t-196.5 81q-162 0 -284 -122q-45 -45 -75 -111t-57 -176h428l-18 -96h-430l-39 -201h430l-18 -96h-426 q-14 -84 -15 -154q0 -123 80 -195.5t195 -72.5q123 0 230.5 81t158.5 218h152q-27 -84 -74 -160t-116 -136.5t-160 -96t-203 -35.5q-174 0 -293 105.5t-119 287.5q0 29 4 66.5t12 91.5h-131z" />
<glyph unicode="&#xa1;" horiz-adv-x="616" d="M6 -449l232 1055h122l-186 -1055h-168zM254 834l35 176h170l-35 -176h-170z" />
<glyph unicode="&#xa2;" horiz-adv-x="974" d="M152 604q0 111 28.5 222.5t87 204.5t147.5 155.5t203 75.5l37 196h117l-39 -194q84 -8 145.5 -48t106.5 -108l-106 -86q-72 106 -177 115l-145 -775q63 4 113.5 32t103.5 83l84 -98q-129 -133 -319 -146l-45 -233h-117l47 240q-131 25 -201.5 124t-70.5 240zM301 580 q0 -92 44 -144.5t112 -66.5l143 761q-47 -10 -90 -50t-88 -105q-57 -78 -89 -185.5t-32 -209.5z" />
<glyph unicode="&#xa3;" horiz-adv-x="1069" d="M115 0l137 680h-123l18 104h125l47 236q43 217 169 333.5t341 116.5q98 0 170 -35t125 -98l-108 -94q-72 96 -205 96q-141 0 -229 -88t-119 -247l-43 -220h289l-23 -104h-287l-108 -549h610l-27 -131h-759z" />
<glyph unicode="&#xa4;" horiz-adv-x="1034" d="M236 684q0 137 90 227t227 90t227 -90t90 -227t-90 -227t-227 -90t-227 90t-90 227z" />
<glyph unicode="&#xa5;" horiz-adv-x="1003" d="M113 391l20 105h297l23 110l-31 105h-248l21 102h196l-186 645h155l193 -704l459 704h166l-433 -645h195l-20 -102h-244l-76 -113l-20 -102h299l-21 -105h-299l-78 -391h-149l78 391h-297z" />
<glyph unicode="&#xa6;" horiz-adv-x="653" d="M117 -152l141 717h143l-143 -717h-141zM324 893l143 717h143l-143 -717h-143z" />
<glyph unicode="&#xa7;" d="M49 -180q0 29 2 43h142v-15q-2 -10 -3 -12q0 -80 49.5 -124t139.5 -44q109 0 183.5 67.5t74.5 186.5q0 61 -35 108.5t-100 67.5l-137 45q-82 29 -141.5 99.5t-59.5 189.5q0 141 69.5 258t206.5 176q-133 76 -133 236q0 84 32 152.5t88 116.5t129 73.5t151 25.5 q152 0 231.5 -82.5t79.5 -191.5q0 -29 -2 -39h-139q0 2 2 12v13q0 78 -50.5 119.5t-128.5 41.5q-111 0 -181 -65.5t-70 -171.5q0 -66 34.5 -105.5t98.5 -60.5l137 -45q82 -29 141.5 -99.5t59.5 -189.5q0 -141 -69 -257t-208 -177q63 -31 101 -91.5t38 -146.5 q0 -176 -115.5 -285.5t-306.5 -109.5q-139 0 -225 75t-86 206zM305 442q0 -98 57.5 -144t126.5 -46q100 0 179 72q41 39 65.5 85t36.5 109q8 39 8 78q0 92 -53 140t-131 48q-102 0 -178 -69q-78 -72 -103 -197q-8 -39 -8 -76z" />
<glyph unicode="&#xa8;" horiz-adv-x="972" d="M354 1223l35 180h143l-36 -180h-142zM764 1223l37 180h143l-35 -180h-145z" />
<glyph unicode="&#xa9;" horiz-adv-x="1710" d="M190 729q0 143 54.5 272t152 226.5t226.5 152t272 54.5t272 -54.5t226.5 -152t151.5 -226.5t54 -272t-54 -272t-151.5 -226.5t-226.5 -151.5t-272 -54t-272 54t-226.5 151.5t-152 226.5t-54.5 272zM307 729q0 -121 45 -230.5t126 -191.5t188.5 -129t228.5 -47t228.5 46 t188.5 130t127 192.5t46 229.5t-46 230.5t-127 192.5t-188.5 129t-228.5 46t-227.5 -46t-188.5 -130t-127 -192.5t-45 -229.5zM559 729q0 176 91 286.5t255 110.5q78 0 134.5 -24.5t119.5 -79.5l-72 -72q-49 43 -89 59.5t-93 16.5q-125 0 -181 -82t-56 -215t56 -215t181 -82 q53 0 93 16.5t89 59.5l72 -72q-59 -51 -117.5 -76.5t-136.5 -25.5q-164 0 -255 109.5t-91 285.5z" />
<glyph unicode="&#xaa;" horiz-adv-x="874" d="M176 840q0 53 18.5 101t55.5 85q84 84 233 84h234l16 84q6 27 7 37t1 18q0 113 -157 113q-76 0 -124 -20.5t-93 -69.5l-70 82q59 59 125.5 85.5t167.5 26.5q47 0 93 -9t86 -32.5t64.5 -66t24.5 -103.5q0 -33 -6 -63l-109 -541h-112l14 78q-76 -88 -227 -88 q-104 0 -173 48t-69 151zM293 844q0 -102 158 -103q106 0 170 64q47 47 61 125l18 92h-204q-90 0 -146.5 -48t-56.5 -130z" />
<glyph unicode="&#xab;" d="M86 549l498 430l-39 -195l-283 -247l187 -248l-33 -172zM528 549l498 430l-39 -195l-285 -247l191 -248l-35 -172z" />
<glyph unicode="&#xac;" horiz-adv-x="1015" d="M98 498l27 133h817l-27 -133l-57 -285h-131l57 285h-686z" />
<glyph unicode="&#xad;" horiz-adv-x="1015" d="M100 489l27 132h811l-25 -132h-813z" />
<glyph unicode="&#xae;" horiz-adv-x="1710" d="M190 729q0 143 54.5 272t152 226.5t226.5 152t272 54.5t272 -54.5t226.5 -152t151.5 -226.5t54 -272t-54 -272t-151.5 -226.5t-226.5 -151.5t-272 -54t-272 54t-226.5 151.5t-152 226.5t-54.5 272zM305 729q0 -121 45 -230.5t127 -193.5t189.5 -130t228.5 -46t228.5 46 t189.5 130t128 193.5t46 230.5q0 123 -46 231.5t-128 192.5t-189.5 130t-228.5 46t-228.5 -46t-189.5 -129t-127 -193.5t-45 -231.5zM664 344v772h264q102 0 172.5 -67.5t70.5 -163.5q0 -80 -45 -135.5t-118 -77.5l184 -328h-127l-176 315h-115v-315h-110zM774 752h141 q63 0 104.5 38t41.5 95t-41 96t-105 39h-141v-268z" />
<glyph unicode="&#xaf;" horiz-adv-x="972" d="M344 1253l21 111h589l-24 -111h-586z" />
<glyph unicode="&#xb0;" horiz-adv-x="933" d="M260 1139q0 139 95.5 235t234.5 96q70 0 130 -25.5t105 -70.5t71 -105t26 -130q0 -139 -96.5 -234.5t-235.5 -95.5t-234.5 95t-95.5 235zM381 1139q0 -92 59.5 -153.5t149.5 -61.5t150.5 61.5t60.5 153.5q0 90 -61.5 152.5t-149.5 62.5q-90 0 -149.5 -61.5t-59.5 -153.5z " />
<glyph unicode="&#xb1;" horiz-adv-x="1015" d="M4 0l27 131h813l-27 -131h-813zM119 590l26 131h342l72 362h133l-74 -362h338l-26 -131h-338l-72 -367h-133l74 367h-342z" />
<glyph unicode="&#xb2;" horiz-adv-x="665" d="M113 584l20 102l385 395q47 47 67.5 87t20.5 87q0 49 -25.5 79t-80.5 30q-72 0 -108 -38t-46 -99h-113q8 45 25.5 86t49.5 75.5t82 56t120 21.5q104 0 157.5 -56t53.5 -146q0 -72 -35 -132.5t-92 -119.5l-320 -326h344l-20 -102h-485z" />
<glyph unicode="&#xb3;" horiz-adv-x="692" d="M154 766q0 25 4 49h114v-12q-2 -8 -2 -12q0 -115 123 -115q63 0 114.5 46t51.5 132q0 63 -26.5 95t-94.5 32h-18l20 98h17q84 0 124 51.5t40 122.5q0 57 -31 84t-74 27q-63 0 -101 -30.5t-57 -100.5h-114q29 123 100.5 178t179.5 55q96 0 153.5 -57.5t57.5 -151.5 q0 -80 -36.5 -139t-110.5 -90q45 -25 65.5 -64.5t20.5 -109.5q0 -117 -76 -199t-215 -82q-119 0 -174 59.5t-55 133.5z" />
<glyph unicode="&#xb4;" horiz-adv-x="972" d="M530 1206l230 310h172l-266 -310h-136z" />
<glyph unicode="&#xb5;" horiz-adv-x="1097" d="M-27 -449l291 1459h144l-125 -623q-10 -55 -11 -94q0 -86 51.5 -132t133.5 -46q33 0 74.5 10t86 40t82 85t54.5 141l123 619h145l-201 -1010h-141l20 113q-109 -125 -297 -125q-119 0 -184 82l-102 -519h-144z" />
<glyph unicode="&#xb6;" horiz-adv-x="1175" d="M193 1040q0 80 29.5 155t91 134.5t153.5 94t213 34.5h489l-26 -131l-355 -1776h-143l352 1774h-225l-354 -1774h-144l230 1149q-135 6 -223 104.5t-88 235.5z" />
<glyph unicode="&#xb7;" horiz-adv-x="526" d="M162 461l37 184h184l-37 -184h-184z" />
<glyph unicode="&#xb8;" horiz-adv-x="972" d="M156 -434l196 299h131l-170 -299h-157z" />
<glyph unicode="&#xb9;" horiz-adv-x="509" d="M215 1176l29 141l192 141h115l-176 -874h-113l148 737z" />
<glyph unicode="&#xba;" horiz-adv-x="884" d="M215 909q0 33 4 73t10 73q45 229 152 323q100 88 231 88q41 0 84 -11t83 -41t65.5 -83t25.5 -131q0 -33 -4 -73t-10 -72q-45 -231 -151 -326q-98 -86 -230 -86q-39 0 -83 11.5t-85 41t-66.5 82.5t-25.5 131zM330 915q0 -88 45 -127.5t108 -39.5q49 0 87 18t63 43 q39 39 64.5 100.5t41.5 145.5q17 90 17 137q0 88 -45 128t-109 40q-49 0 -86 -17.5t-61 -42.5q-39 -39 -66 -101t-43 -144q-16 -90 -16 -140z" />
<glyph unicode="&#xbb;" d="M76 117l39 194l284 248l-190 248l35 172l329 -432zM518 117l39 194l283 248l-187 248l33 172l330 -432z" />
<glyph unicode="&#xbc;" horiz-adv-x="1523" d="M215 1176l27 139l194 143h115l-176 -874h-113l148 737zM238 0l938 1458h122l-938 -1458h-122zM836 135l20 105l416 634h127l-418 -634h213l43 213h111l-43 -213h92l-19 -105h-94l-27 -135h-110l27 135h-338z" />
<glyph unicode="&#xbd;" horiz-adv-x="1552" d="M213 0l940 1458h123l-940 -1458h-123zM215 1176l27 139l194 143h115l-176 -874h-113l148 737zM881 0l22 102l385 396q47 47 67.5 87t20.5 87q0 49 -25.5 78.5t-80.5 29.5q-72 0 -108 -37.5t-46 -99.5h-115q8 45 25.5 86t49.5 76t82 56.5t120 21.5q104 0 158.5 -56.5 t54.5 -146.5q0 -72 -36 -132.5t-93 -119.5l-318 -326h345l-23 -102h-485z" />
<glyph unicode="&#xbe;" horiz-adv-x="1626" d="M154 766q0 25 4 49h114v-12q-2 -8 -2 -12q0 -115 123 -115q63 0 114.5 46t51.5 132q0 63 -26.5 95t-94.5 32h-18l20 98h17q84 0 124 51.5t40 122.5q0 57 -31 84t-74 27q-63 0 -101 -30.5t-57 -100.5h-114q29 123 100.5 178t179.5 55q96 0 153.5 -57t57.5 -152 q0 -80 -36.5 -139t-110.5 -90q45 -25 65.5 -64.5t20.5 -109.5q0 -117 -76 -199t-215 -82q-119 0 -174 59.5t-55 133.5zM350 0l938 1458h123l-940 -1458h-121zM934 135l20 105l416 634h127l-418 -634h213l43 213h111l-43 -213h94l-20 -105h-95l-26 -135h-111l29 135h-340z " />
<glyph unicode="&#xbf;" horiz-adv-x="970" d="M-33 -160q0 90 36 166t108 158l206 239q23 25 40.5 59t21.5 60l16 86h144l-19 -92q-12 -59 -33.5 -102t-64.5 -92l-205 -236q-55 -63 -79.5 -116.5t-24.5 -121.5q0 -78 48 -129t134 -51q102 0 175 62.5t95 173.5h146q-33 -172 -149 -268.5t-290 -96.5q-127 0 -216 82 t-89 219zM416 834l33 176h169l-32 -176h-170z" />
<glyph unicode="&#xc0;" horiz-adv-x="1189" d="M-74 0l797 1458h125l219 -1458h-152l-45 332h-606l-178 -332h-160zM330 457h526l-108 786zM582 1898h163l107 -309h-123z" />
<glyph unicode="&#xc1;" horiz-adv-x="1189" d="M-74 0l797 1458h125l219 -1458h-152l-45 332h-606l-178 -332h-160zM330 457h526l-108 786zM668 1589l229 309h172l-266 -309h-135z" />
<glyph unicode="&#xc2;" horiz-adv-x="1189" d="M-74 0l797 1458h125l219 -1458h-152l-45 332h-606l-178 -332h-160zM330 457h526l-108 786zM459 1599l307 314h133l184 -314h-129l-131 218l-223 -218h-141z" />
<glyph unicode="&#xc3;" horiz-adv-x="1189" d="M-74 0l797 1458h125l219 -1458h-152l-45 332h-606l-178 -332h-160zM330 457h526l-108 786zM469 1722q55 51 100 74t97 23q76 0 143 -50q35 -25 54.5 -31.5t49.5 -6.5q55 0 127 69l62 -80q-53 -51 -100.5 -73.5t-98.5 -22.5q-74 0 -141 49q-33 23 -53.5 31t-51.5 8 t-59.5 -16.5t-67.5 -53.5z" />
<glyph unicode="&#xc4;" horiz-adv-x="1189" d="M-74 0l797 1458h125l219 -1458h-152l-45 332h-606l-178 -332h-160zM330 457h526l-108 786zM520 1606l35 180h143l-36 -180h-142zM930 1606l37 180h143l-35 -180h-145z" />
<glyph unicode="&#xc5;" horiz-adv-x="1189" d="M-74 0l797 1458h125l219 -1458h-152l-45 332h-606l-178 -332h-160zM330 457h526l-108 786zM561 1776q0 100 69.5 169.5t170.5 69.5q100 0 170.5 -69.5t70.5 -169.5t-70.5 -172t-170.5 -72t-170 71.5t-70 172.5zM657 1776q0 -57 43 -101.5t101 -44.5q57 0 101 44.5 t44 101.5t-44 99t-101 42t-100.5 -42t-43.5 -99z" />
<glyph unicode="&#xc6;" horiz-adv-x="1804" d="M-84 0l1022 1458h946l-26 -129h-709l-107 -532h607l-27 -131h-606l-107 -537h719l-26 -129h-867l25 127l45 227h-475l-246 -354h-168zM414 479h417l170 850z" />
<glyph unicode="&#xc7;" horiz-adv-x="1243" d="M141 381q0 45 10.5 123t38.5 225q25 135 44.5 220t43 150.5t54 116t76.5 95.5q74 74 176 116.5t211 42.5q203 0 310 -117.5t107 -310.5h-149q0 137 -71.5 218t-196.5 81q-160 0 -283 -122q-59 -59 -94 -162t-78 -328q-27 -139 -38 -216t-11 -128q0 -123 80 -195.5 t194 -72.5q139 0 240.5 86t148.5 213h152q-63 -201 -210.5 -314.5t-336.5 -113.5q-178 0 -298 105.5t-120 287.5zM281 -434l196 299h131l-170 -299h-157z" />
<glyph unicode="&#xc8;" horiz-adv-x="1171" d="M100 0l27 129l240 1200l26 129h858l-26 -129h-709l-106 -528h608l-25 -129h-608l-111 -543h723l-24 -129h-873zM608 1898h164l107 -309h-123z" />
<glyph unicode="&#xc9;" horiz-adv-x="1171" d="M100 0l27 129l240 1200l26 129h858l-26 -129h-709l-106 -528h608l-25 -129h-608l-111 -543h723l-24 -129h-873zM664 1589l229 309h172l-266 -309h-135z" />
<glyph unicode="&#xca;" horiz-adv-x="1171" d="M100 0l27 129l240 1200l26 129h858l-26 -129h-709l-106 -528h608l-25 -129h-608l-111 -543h723l-24 -129h-873zM481 1599l307 314h134l184 -314h-129l-131 218l-223 -218h-142z" />
<glyph unicode="&#xcb;" horiz-adv-x="1171" d="M100 0l27 129l240 1200l26 129h858l-26 -129h-709l-106 -528h608l-25 -129h-608l-111 -543h723l-24 -129h-873zM520 1606l35 180h143l-36 -180h-142zM930 1606l37 180h143l-35 -180h-145z" />
<glyph unicode="&#xcc;" horiz-adv-x="548" d="M100 0l27 129l240 1200l26 129h148l-27 -129l-240 -1200l-26 -129h-148zM268 1898h164l107 -309h-123z" />
<glyph unicode="&#xcd;" horiz-adv-x="548" d="M100 0l27 129l240 1200l26 129h148l-27 -129l-240 -1200l-26 -129h-148zM348 1589l230 309h172l-267 -309h-135z" />
<glyph unicode="&#xce;" horiz-adv-x="548" d="M100 0l27 129l240 1200l26 129h148l-27 -129l-240 -1200l-26 -129h-148zM154 1599l307 314h133l184 -314h-129l-131 218l-223 -218h-141z" />
<glyph unicode="&#xcf;" horiz-adv-x="548" d="M100 0l27 129l240 1200l26 129h148l-27 -129l-240 -1200l-26 -129h-148zM207 1606l35 180h143l-37 -180h-141zM616 1606l37 180h144l-35 -180h-146z" />
<glyph unicode="&#xd0;" horiz-adv-x="1337" d="M113 678l22 115h150l108 538l27 127h454q80 0 152 -20.5t130 -66.5t92 -122.5t34 -187.5q0 -55 -9 -121t-34 -195q-25 -133 -49.5 -227t-52 -163.5t-62.5 -123t-86 -98.5q-72 -66 -170 -99.5t-209 -33.5h-483l27 129l108 549h-149zM301 129h301q84 0 159 24.5t136 79.5 q66 59 108 173t85 339q27 137 36 199t9 111q0 129 -72 201.5t-217 72.5h-303l-109 -536h316l-23 -115h-315z" />
<glyph unicode="&#xd1;" horiz-adv-x="1425" d="M100 0l27 129l266 1329h137l502 -1182l209 1053l27 129h149l-26 -129l-267 -1329h-137l-502 1182l-211 -1053l-26 -129h-148zM590 1722q53 51 99 74t97 23q41 0 76 -13.5t68 -36.5t53.5 -30.5t50.5 -7.5q51 0 127 69l62 -80q-53 -51 -100.5 -73.5t-98.5 -22.5 q-74 0 -141 49q-35 25 -53.5 32t-51.5 7q-31 0 -60.5 -16.5t-66.5 -53.5z" />
<glyph unicode="&#xd2;" horiz-adv-x="1263" d="M141 381q0 49 10.5 123t38.5 225q25 133 45.5 220t43 150.5t53 114t76.5 95.5q76 76 180 118.5t215 42.5q176 0 290.5 -108.5t114.5 -284.5q0 -45 -11 -116.5t-40 -231.5q-25 -133 -45 -220t-42.5 -150.5t-53.5 -113.5t-76 -95q-76 -76 -180.5 -119t-214.5 -43 q-176 0 -290 109.5t-114 283.5zM291 389q0 -127 76.5 -199.5t181.5 -72.5q168 0 289 125q31 31 52 66.5t39.5 90t37 134t41.5 196.5q29 150 39 220.5t10 119.5q0 127 -77 199.5t-181 72.5q-168 0 -289 -124q-29 -29 -51.5 -66t-41 -91t-37 -134t-40.5 -197 q-29 -147 -39 -219t-10 -121zM631 1898h164l106 -309h-123z" />
<glyph unicode="&#xd3;" horiz-adv-x="1263" d="M141 381q0 49 10.5 123t38.5 225q25 133 45.5 220t43 150.5t53 114t76.5 95.5q76 76 180 118.5t215 42.5q176 0 290.5 -108.5t114.5 -284.5q0 -45 -11 -116.5t-40 -231.5q-25 -133 -45 -220t-42.5 -150.5t-53.5 -113.5t-76 -95q-76 -76 -180.5 -119t-214.5 -43 q-176 0 -290 109.5t-114 283.5zM291 389q0 -127 76.5 -199.5t181.5 -72.5q168 0 289 125q31 31 52 66.5t39.5 90t37 134t41.5 196.5q29 150 39 220.5t10 119.5q0 127 -77 199.5t-181 72.5q-168 0 -289 -124q-29 -29 -51.5 -66t-41 -91t-37 -134t-40.5 -197 q-29 -147 -39 -219t-10 -121zM715 1589l229 309h172l-266 -309h-135z" />
<glyph unicode="&#xd4;" horiz-adv-x="1263" d="M141 381q0 49 10.5 123t38.5 225q25 133 45.5 220t43 150.5t53 114t76.5 95.5q76 76 180 118.5t215 42.5q176 0 290.5 -108.5t114.5 -284.5q0 -45 -11 -116.5t-40 -231.5q-25 -133 -45 -220t-42.5 -150.5t-53.5 -113.5t-76 -95q-76 -76 -180.5 -119t-214.5 -43 q-176 0 -290 109.5t-114 283.5zM291 389q0 -127 76.5 -199.5t181.5 -72.5q168 0 289 125q31 31 52 66.5t39.5 90t37 134t41.5 196.5q29 150 39 220.5t10 119.5q0 127 -77 199.5t-181 72.5q-168 0 -289 -124q-29 -29 -51.5 -66t-41 -91t-37 -134t-40.5 -197 q-29 -147 -39 -219t-10 -121zM508 1599l307 314h133l185 -314h-129l-132 218l-223 -218h-141z" />
<glyph unicode="&#xd5;" horiz-adv-x="1263" d="M141 381q0 49 10.5 123t38.5 225q25 133 45.5 220t43 150.5t53 114t76.5 95.5q76 76 180 118.5t215 42.5q176 0 290.5 -108.5t114.5 -284.5q0 -45 -11 -116.5t-40 -231.5q-25 -133 -45 -220t-42.5 -150.5t-53.5 -113.5t-76 -95q-76 -76 -180.5 -119t-214.5 -43 q-176 0 -290 109.5t-114 283.5zM291 389q0 -127 76.5 -199.5t181.5 -72.5q168 0 289 125q31 31 52 66.5t39.5 90t37 134t41.5 196.5q29 150 39 220.5t10 119.5q0 127 -77 199.5t-181 72.5q-168 0 -289 -124q-29 -29 -51.5 -66t-41 -91t-37 -134t-40.5 -197 q-29 -147 -39 -219t-10 -121zM518 1722q53 51 99.5 74t97.5 23q72 0 143 -50q33 -23 53.5 -30.5t51.5 -7.5q51 0 127 69l61 -80q-53 -51 -100 -73.5t-99 -22.5q-74 0 -141 49q-33 25 -53.5 32t-50.5 7q-31 0 -61 -16.5t-66 -53.5z" />
<glyph unicode="&#xd6;" horiz-adv-x="1263" d="M141 381q0 49 10.5 123t38.5 225q25 133 45.5 220t43 150.5t53 114t76.5 95.5q76 76 180 118.5t215 42.5q176 0 290.5 -108.5t114.5 -284.5q0 -45 -11 -116.5t-40 -231.5q-25 -133 -45 -220t-42.5 -150.5t-53.5 -113.5t-76 -95q-76 -76 -180.5 -119t-214.5 -43 q-176 0 -290 109.5t-114 283.5zM291 389q0 -127 76.5 -199.5t181.5 -72.5q168 0 289 125q31 31 52 66.5t39.5 90t37 134t41.5 196.5q29 150 39 220.5t10 119.5q0 127 -77 199.5t-181 72.5q-168 0 -289 -124q-29 -29 -51.5 -66t-41 -91t-37 -134t-40.5 -197 q-29 -147 -39 -219t-10 -121zM557 1606l35 180h143l-37 -180h-141zM967 1606l37 180h143l-35 -180h-145z" />
<glyph unicode="&#xd7;" horiz-adv-x="1015" d="M78 252l352 305l-235 313l102 88l235 -313l353 305l73 -98l-352 -305l236 -311l-101 -89l-235 312l-352 -305z" />
<glyph unicode="&#xd8;" horiz-adv-x="1265" d="M84 -90l141 219q-39 49 -62.5 114.5t-23.5 137.5q0 45 11.5 116.5t39.5 231.5q25 133 45.5 220t43 150.5t53 114t76.5 95.5q76 76 180 118.5t215 42.5q141 0 239 -67l95 145h131l-144 -219q84 -102 84 -252q0 -49 -10 -122.5t-39 -225.5q-25 -133 -45 -220t-42.5 -150.5 t-53.5 -113.5t-76 -95q-76 -76 -180.5 -119t-214.5 -43q-141 0 -240 67l-94 -145h-129zM291 389q0 -70 24 -123l652 1014q-70 61 -168 61q-168 0 -289 -124q-29 -29 -51.5 -66t-41 -91t-37 -134t-40.5 -197q-29 -147 -39 -219t-10 -121zM379 176q68 -59 170 -59 q168 0 289 125q31 31 52 66.5t39.5 90t37 134t41.5 196.5q29 150 39 220.5t10 119.5q0 70 -25 121z" />
<glyph unicode="&#xd9;" horiz-adv-x="1329" d="M168 383q0 29 4 61.5t10 63.5l189 950h149l-192 -964q0 -10 -4 -41q-6 -43 -7 -64q0 -111 67 -190.5t204 -79.5q147 0 262 98t151 287l164 825l25 129h149l-24 -129l-170 -850q-47 -236 -199.5 -363.5t-372.5 -127.5q-76 0 -147.5 23.5t-129.5 72.5t-93 124t-35 175z M678 1898h164l106 -309h-123z" />
<glyph unicode="&#xda;" horiz-adv-x="1329" d="M168 383q0 29 4 61.5t10 63.5l189 950h149l-192 -964q0 -10 -4 -41q-6 -43 -7 -64q0 -111 67 -190.5t204 -79.5q147 0 262 98t151 287l164 825l25 129h149l-24 -129l-170 -850q-47 -236 -199.5 -363.5t-372.5 -127.5q-76 0 -147.5 23.5t-129.5 72.5t-93 124t-35 175z M762 1589l229 309h172l-266 -309h-135z" />
<glyph unicode="&#xdb;" horiz-adv-x="1329" d="M168 383q0 29 4 61.5t10 63.5l189 950h149l-192 -964q0 -10 -4 -41q-6 -43 -7 -64q0 -111 67 -190.5t204 -79.5q147 0 262 98t151 287l164 825l25 129h149l-24 -129l-170 -850q-47 -236 -199.5 -363.5t-372.5 -127.5q-76 0 -147.5 23.5t-129.5 72.5t-93 124t-35 175z M557 1599l307 314h133l185 -314h-129l-131 218l-224 -218h-141z" />
<glyph unicode="&#xdc;" horiz-adv-x="1329" d="M168 383q0 29 4 61.5t10 63.5l189 950h149l-192 -964q0 -10 -4 -41q-6 -43 -7 -64q0 -111 67 -190.5t204 -79.5q147 0 262 98t151 287l164 825l25 129h149l-24 -129l-170 -850q-47 -236 -199.5 -363.5t-372.5 -127.5q-76 0 -147.5 23.5t-129.5 72.5t-93 124t-35 175z M598 1606l35 180h143l-37 -180h-141zM1008 1606l36 180h144l-35 -180h-145z" />
<glyph unicode="&#xdd;" horiz-adv-x="1003" d="M205 1458h155l193 -704l459 704h166l-578 -862l-121 -596h-149l123 606zM567 1589l230 309h172l-267 -309h-135z" />
<glyph unicode="&#xde;" horiz-adv-x="1251" d="M100 0l88 442l205 1016h148l-60 -295h346q96 0 169 -28.5t118 -78.5t65.5 -112.5t20.5 -132.5q0 -104 -35 -194.5t-102.5 -159t-163.5 -106.5t-215 -38h-371l-65 -313h-148zM338 444h352q160 0 260.5 100.5t100.5 258.5q0 98 -58.5 163.5t-183.5 65.5h-352z" />
<glyph unicode="&#xdf;" horiz-adv-x="1087" d="M76 0l26 129l189 946q80 397 459 398q145 0 235 -78t90 -219q0 -90 -46 -170t-132 -127q90 -49 90 -158q0 -31 -10 -78l-68 -352q-27 -139 -112.5 -215t-216.5 -76h-117l22 123h84q66 0 123 43t76 139l70 348q6 31 6 52q0 59 -36 88.5t-93 29.5h-90l24 119h72 q96 0 153.5 69.5t57.5 159.5q0 80 -41 121q-55 55 -156 56q-129 0 -201.5 -74t-99.5 -205l-188 -940l-27 -129h-143z" />
<glyph unicode="&#xe0;" horiz-adv-x="1026" d="M51 233q0 68 21.5 129.5t68.5 106.5q59 57 133 81.5t164 24.5h295l23 107q8 37 8 68q0 72 -53.5 110.5t-149.5 38.5q-90 0 -152.5 -28.5t-119.5 -92.5l-84 99q70 76 154.5 110.5t209.5 34.5q61 0 118.5 -11.5t108 -40t81 -80.5t30.5 -130q0 -10 -4 -37q-6 -31 -6 -43 l-41 -209l-94 -471h-141l22 100q-57 -57 -125.5 -84.5t-163.5 -27.5q-131 0 -217 59t-86 186zM193 242q0 -66 48 -98.5t152 -32.5q137 0 215 77q64 60 82 164l23 117h-260q-117 0 -188.5 -59.5t-71.5 -167.5zM442 1516h164l107 -310h-123z" />
<glyph unicode="&#xe1;" horiz-adv-x="1026" d="M51 233q0 68 21.5 129.5t68.5 106.5q59 57 133 81.5t164 24.5h295l23 107q8 37 8 68q0 72 -53.5 110.5t-149.5 38.5q-90 0 -152.5 -28.5t-119.5 -92.5l-84 99q70 76 154.5 110.5t209.5 34.5q61 0 118.5 -11.5t108 -40t81 -80.5t30.5 -130q0 -10 -4 -37q-6 -31 -6 -43 l-41 -209l-94 -471h-141l22 100q-57 -57 -125.5 -84.5t-163.5 -27.5q-131 0 -217 59t-86 186zM193 242q0 -66 48 -98.5t152 -32.5q137 0 215 77q64 60 82 164l23 117h-260q-117 0 -188.5 -59.5t-71.5 -167.5zM526 1206l230 310h172l-266 -310h-136z" />
<glyph unicode="&#xe2;" horiz-adv-x="1026" d="M51 233q0 68 21.5 129.5t68.5 106.5q59 57 133 81.5t164 24.5h295l23 107q8 37 8 68q0 72 -53.5 110.5t-149.5 38.5q-90 0 -152.5 -28.5t-119.5 -92.5l-84 99q70 76 154.5 110.5t209.5 34.5q61 0 118.5 -11.5t108 -40t81 -80.5t30.5 -130q0 -10 -4 -37q-6 -31 -6 -43 l-41 -209l-94 -471h-141l22 100q-57 -57 -125.5 -84.5t-163.5 -27.5q-131 0 -217 59t-86 186zM193 242q0 -66 48 -98.5t152 -32.5q137 0 215 77q64 60 82 164l23 117h-260q-117 0 -188.5 -59.5t-71.5 -167.5zM315 1217l308 313h133l184 -313h-129l-131 217l-223 -217h-142z " />
<glyph unicode="&#xe3;" horiz-adv-x="1026" d="M51 233q0 68 21.5 129.5t68.5 106.5q59 57 133 81.5t164 24.5h295l23 107q8 37 8 68q0 72 -53.5 110.5t-149.5 38.5q-90 0 -152.5 -28.5t-119.5 -92.5l-84 99q70 76 154.5 110.5t209.5 34.5q61 0 118.5 -11.5t108 -40t81 -80.5t30.5 -130q0 -10 -4 -37q-6 -31 -6 -43 l-41 -209l-94 -471h-141l22 100q-57 -57 -125.5 -84.5t-163.5 -27.5q-131 0 -217 59t-86 186zM193 242q0 -66 48 -98.5t152 -32.5q137 0 215 77q64 60 82 164l23 117h-260q-117 0 -188.5 -59.5t-71.5 -167.5zM330 1341q55 51 100 74t96 23q76 0 144 -49q35 -25 54 -32t50 -7 t59.5 16t67.5 53l62 -80q-53 -51 -100.5 -73.5t-98.5 -22.5q-74 0 -141 49q-35 25 -54.5 32t-50.5 7q-51 0 -127 -69z" />
<glyph unicode="&#xe4;" horiz-adv-x="1026" d="M51 233q0 68 21.5 129.5t68.5 106.5q59 57 133 81.5t164 24.5h295l23 107q8 37 8 68q0 72 -53.5 110.5t-149.5 38.5q-90 0 -152.5 -28.5t-119.5 -92.5l-84 99q70 76 154.5 110.5t209.5 34.5q61 0 118.5 -11.5t108 -40t81 -80.5t30.5 -130q0 -10 -4 -37q-6 -31 -6 -43 l-41 -209l-94 -471h-141l22 100q-57 -57 -125.5 -84.5t-163.5 -27.5q-131 0 -217 59t-86 186zM193 242q0 -66 48 -98.5t152 -32.5q137 0 215 77q64 60 82 164l23 117h-260q-117 0 -188.5 -59.5t-71.5 -167.5zM360 1223l35 180h144l-37 -180h-142zM770 1223l37 180h143 l-35 -180h-145z" />
<glyph unicode="&#xe5;" horiz-adv-x="1026" d="M51 233q0 68 21.5 129.5t68.5 106.5q59 57 133 81.5t164 24.5h295l23 107q8 37 8 68q0 72 -53.5 110.5t-149.5 38.5q-90 0 -152.5 -28.5t-119.5 -92.5l-84 99q70 76 154.5 110.5t209.5 34.5q61 0 118.5 -11.5t108 -40t81 -80.5t30.5 -130q0 -10 -4 -37q-6 -31 -6 -43 l-41 -209l-94 -471h-141l22 100q-57 -57 -125.5 -84.5t-163.5 -27.5q-131 0 -217 59t-86 186zM193 242q0 -66 48 -98.5t152 -32.5q137 0 215 77q64 60 82 164l23 117h-260q-117 0 -188.5 -59.5t-71.5 -167.5zM422 1407q0 100 70.5 170t169.5 70q100 0 170.5 -70t70.5 -170 t-70.5 -172t-170.5 -72q-98 0 -169 72t-71 172zM518 1407q0 -57 43 -101t101 -44q59 0 102 43t43 102q0 57 -43 99t-102 42q-57 0 -100.5 -42t-43.5 -99z" />
<glyph unicode="&#xe6;" horiz-adv-x="1636" d="M51 233q0 66 22.5 128.5t67.5 107.5q57 57 131 81.5t166 24.5h295l23 105q8 37 8 70q0 72 -53.5 110.5t-149.5 38.5q-90 0 -152.5 -28.5t-119.5 -92.5l-84 99q70 76 154.5 110.5t209.5 34.5q100 0 183.5 -35t121.5 -123q59 76 141.5 117t184.5 41q156 0 242 -96t86 -248 q0 -41 -6 -97.5t-19 -111.5h-649q-12 -63 -12 -127q0 -104 54 -166.5t163 -62.5q86 0 150.5 28.5t131.5 89.5l86 -96q-80 -76 -172 -111.5t-206 -35.5q-104 0 -186.5 46t-121.5 130q-59 -90 -147 -133t-219 -43q-147 0 -235.5 57t-88.5 188zM193 242q0 -66 48 -99.5 t152 -33.5q135 0 215 79q63 59 82 162l23 119h-260q-117 0 -188.5 -59.5t-71.5 -167.5zM872 575h508q0 14 4 46q5 32 5 57q0 111 -54.5 167t-138.5 56q-115 0 -198 -80t-126 -246z" />
<glyph unicode="&#xe7;" horiz-adv-x="954" d="M102 350q0 35 3.5 76t11.5 80q45 250 181 383t333 133q100 0 169 -38t122 -112l-107 -90q-39 59 -85 86t-114 27q-127 0 -223 -98q-51 -53 -82.5 -130t-48.5 -161q-16 -86 -16 -152q0 -119 63.5 -179t155.5 -60q72 0 128 27.5t116 88.5l84 -102q-141 -141 -336 -141 q-172 0 -263.5 101t-91.5 261zM168 -434l197 299h131l-170 -299h-158z" />
<glyph unicode="&#xe8;" horiz-adv-x="1036" d="M102 336q0 119 29 239.5t89.5 222t156.5 163t223 61.5q156 0 242 -97t86 -249q0 -39 -6.5 -94.5t-18.5 -112.5h-649q-12 -63 -12 -127q0 -104 54 -166.5t163 -62.5q86 0 150.5 28.5t131.5 89.5l86 -96q-156 -147 -381 -147q-156 0 -250 89t-94 259zM272 573h508 q0 14 4 45q4 35 4 58q0 111 -55 167t-139 56q-113 0 -196 -80t-126 -246zM475 1516h164l106 -310h-122z" />
<glyph unicode="&#xe9;" horiz-adv-x="1036" d="M102 336q0 119 29 239.5t89.5 222t156.5 163t223 61.5q156 0 242 -97t86 -249q0 -39 -6.5 -94.5t-18.5 -112.5h-649q-12 -63 -12 -127q0 -104 54 -166.5t163 -62.5q86 0 150.5 28.5t131.5 89.5l86 -96q-156 -147 -381 -147q-156 0 -250 89t-94 259zM272 573h508 q0 14 4 45q4 35 4 58q0 111 -55 167t-139 56q-113 0 -196 -80t-126 -246zM559 1206l229 310h173l-267 -310h-135z" />
<glyph unicode="&#xea;" horiz-adv-x="1036" d="M102 336q0 119 29 239.5t89.5 222t156.5 163t223 61.5q156 0 242 -97t86 -249q0 -39 -6.5 -94.5t-18.5 -112.5h-649q-12 -63 -12 -127q0 -104 54 -166.5t163 -62.5q86 0 150.5 28.5t131.5 89.5l86 -96q-156 -147 -381 -147q-156 0 -250 89t-94 259zM272 573h508 q0 14 4 45q4 35 4 58q0 111 -55 167t-139 56q-113 0 -196 -80t-126 -246zM346 1217l307 313h133l185 -313h-129l-131 217l-224 -217h-141z" />
<glyph unicode="&#xeb;" horiz-adv-x="1036" d="M102 336q0 119 29 239.5t89.5 222t156.5 163t223 61.5q156 0 242 -97t86 -249q0 -39 -6.5 -94.5t-18.5 -112.5h-649q-12 -63 -12 -127q0 -104 54 -166.5t163 -62.5q86 0 150.5 28.5t131.5 89.5l86 -96q-156 -147 -381 -147q-156 0 -250 89t-94 259zM272 573h508 q0 14 4 45q4 35 4 58q0 111 -55 167t-139 56q-113 0 -196 -80t-126 -246zM389 1223l35 180h143l-37 -180h-141zM799 1223l37 180h143l-35 -180h-145z" />
<glyph unicode="&#xec;" horiz-adv-x="493" d="M76 0l26 129l174 881h144l-174 -881l-27 -129h-143zM186 1516h164l107 -310h-123z" />
<glyph unicode="&#xed;" horiz-adv-x="493" d="M76 0l26 129l174 881h144l-174 -881l-27 -129h-143zM270 1206l230 310h172l-266 -310h-136z" />
<glyph unicode="&#xee;" horiz-adv-x="493" d="M57 1217l308 313h133l184 -313h-129l-131 217l-223 -217h-142zM76 0l26 129l174 881h144l-174 -881l-27 -129h-143z" />
<glyph unicode="&#xef;" horiz-adv-x="493" d="M76 0l26 129l174 881h144l-174 -881l-27 -129h-143zM96 1223l35 180h143l-36 -180h-142zM506 1223l37 180h143l-35 -180h-145z" />
<glyph unicode="&#xf0;" horiz-adv-x="1032" d="M104 322q0 39 6.5 89t14.5 91q31 158 77 252t111 151q117 104 252 105q55 0 91 -6.5t65 -20.5l-78 207h-229l20 104h178l-61 168h143l60 -168h159l-18 -104h-111l82 -227q33 -92 45.5 -158t12.5 -127q0 -41 -5.5 -85t-15.5 -91q-29 -147 -75 -247.5t-115 -160.5 q-121 -106 -285 -106q-51 0 -106.5 14t-104.5 51t-81 103.5t-32 165.5zM248 324q0 -109 55 -160t135 -51q51 0 100.5 21.5t86.5 58.5q47 45 78.5 117.5t56.5 191.5q20 108 20 178q0 109 -55 159t-135 50q-51 0 -100.5 -20.5t-86.5 -57.5q-47 -45 -78.5 -117.5t-56.5 -191.5 q-20 -109 -20 -178z" />
<glyph unicode="&#xf1;" horiz-adv-x="1095" d="M76 0l125 623l75 387h142l-23 -113q109 125 299 125q119 0 198 -76t79 -209q0 -45 -10 -100l-130 -637h-143l125 623q10 55 10 94q0 88 -50 133t-132 45q-33 0 -76 -10.5t-87 -39t-82 -84.5t-54 -143l-123 -618h-143zM391 1341q53 51 99.5 74t97.5 23q76 0 143 -49 q33 -23 53.5 -31t51.5 -8t59.5 16t67.5 53l61 -80q-53 -51 -100 -73.5t-99 -22.5q-74 0 -141 49q-35 25 -54.5 32t-49.5 7q-53 0 -127 -69z" />
<glyph unicode="&#xf2;" horiz-adv-x="1028" d="M102 324q0 43 6.5 92t12.5 90q31 158 78 253t112 154q61 55 135 82t154 27q51 0 105.5 -14.5t104.5 -51t83 -103.5t33 -165q0 -43 -5.5 -92t-13.5 -90q-31 -158 -78 -253t-112 -155q-123 -111 -289 -110q-49 0 -104.5 14t-105.5 52t-83 104.5t-33 165.5zM244 328 q0 -109 56 -161t138 -52q51 0 102.5 22.5t86.5 57.5q47 47 78.5 118.5t56.5 192.5q22 117 22 176q0 109 -56 161t-138 52q-51 0 -101.5 -20.5t-87.5 -57.5q-47 -47 -78.5 -118.5t-56.5 -192.5q-23 -117 -22 -178zM432 1516h164l106 -310h-122z" />
<glyph unicode="&#xf3;" horiz-adv-x="1028" d="M102 324q0 43 6.5 92t12.5 90q31 158 78 253t112 154q61 55 135 82t154 27q51 0 105.5 -14.5t104.5 -51t83 -103.5t33 -165q0 -43 -5.5 -92t-13.5 -90q-31 -158 -78 -253t-112 -155q-123 -111 -289 -110q-49 0 -104.5 14t-105.5 52t-83 104.5t-33 165.5zM244 328 q0 -109 56 -161t138 -52q51 0 102.5 22.5t86.5 57.5q47 47 78.5 118.5t56.5 192.5q22 117 22 176q0 109 -56 161t-138 52q-51 0 -101.5 -20.5t-87.5 -57.5q-47 -47 -78.5 -118.5t-56.5 -192.5q-23 -117 -22 -178zM553 1206l229 310h172l-266 -310h-135z" />
<glyph unicode="&#xf4;" horiz-adv-x="1028" d="M102 324q0 43 6.5 92t12.5 90q31 158 78 253t112 154q61 55 135 82t154 27q51 0 105.5 -14.5t104.5 -51t83 -103.5t33 -165q0 -43 -5.5 -92t-13.5 -90q-31 -158 -78 -253t-112 -155q-123 -111 -289 -110q-49 0 -104.5 14t-105.5 52t-83 104.5t-33 165.5zM244 328 q0 -109 56 -161t138 -52q51 0 102.5 22.5t86.5 57.5q47 47 78.5 118.5t56.5 192.5q22 117 22 176q0 109 -56 161t-138 52q-51 0 -101.5 -20.5t-87.5 -57.5q-47 -47 -78.5 -118.5t-56.5 -192.5q-23 -117 -22 -178zM340 1217l307 313h133l185 -313h-129l-131 217l-224 -217 h-141z" />
<glyph unicode="&#xf5;" horiz-adv-x="1028" d="M102 324q0 43 6.5 92t12.5 90q31 158 78 253t112 154q61 55 135 82t154 27q51 0 105.5 -14.5t104.5 -51t83 -103.5t33 -165q0 -43 -5.5 -92t-13.5 -90q-31 -158 -78 -253t-112 -155q-123 -111 -289 -110q-49 0 -104.5 14t-105.5 52t-83 104.5t-33 165.5zM244 328 q0 -109 56 -161t138 -52q51 0 102.5 22.5t86.5 57.5q47 47 78.5 118.5t56.5 192.5q22 117 22 176q0 109 -56 161t-138 52q-51 0 -101.5 -20.5t-87.5 -57.5q-47 -47 -78.5 -118.5t-56.5 -192.5q-23 -117 -22 -178zM356 1341q55 51 100.5 74t96.5 23q76 0 143 -49 q35 -25 54.5 -32t50.5 -7t59.5 16t67.5 53l61 -80q-53 -51 -100 -73.5t-98 -22.5q-74 0 -142 49q-35 25 -54.5 32t-49.5 7q-51 0 -127 -69z" />
<glyph unicode="&#xf6;" horiz-adv-x="1028" d="M102 324q0 43 6.5 92t12.5 90q31 158 78 253t112 154q61 55 135 82t154 27q51 0 105.5 -14.5t104.5 -51t83 -103.5t33 -165q0 -43 -5.5 -92t-13.5 -90q-31 -158 -78 -253t-112 -155q-123 -111 -289 -110q-49 0 -104.5 14t-105.5 52t-83 104.5t-33 165.5zM244 328 q0 -109 56 -161t138 -52q51 0 102.5 22.5t86.5 57.5q47 47 78.5 118.5t56.5 192.5q22 117 22 176q0 109 -56 161t-138 52q-51 0 -101.5 -20.5t-87.5 -57.5q-47 -47 -78.5 -118.5t-56.5 -192.5q-23 -117 -22 -178zM385 1223l35 180h143l-37 -180h-141zM795 1223l36 180h144 l-35 -180h-145z" />
<glyph unicode="&#xf7;" horiz-adv-x="1015" d="M96 487l27 131h817l-27 -131h-817zM350 117l35 170h168l-33 -170h-170zM483 819l35 172h168l-33 -172h-170z" />
<glyph unicode="&#xf8;" horiz-adv-x="1030" d="M10 -90l152 203q-59 84 -60 211q0 41 6.5 86t14.5 96q29 158 77 253t113 154q61 55 135 82t154 27q47 0 100.5 -13.5t98.5 -45.5l102 137h115l-150 -199q59 -80 60 -213q0 -43 -5 -92t-14 -90q-29 -158 -77 -253t-113 -155q-123 -111 -289 -110q-49 0 -103.5 14t-99.5 47 l-104 -139h-113zM246 328q0 -51 12 -92l463 616q-51 43 -129 43q-51 0 -101.5 -20.5t-87.5 -57.5q-49 -49 -80.5 -119.5t-56.5 -191.5q-20 -104 -20 -178zM307 160q47 -45 131 -45q51 0 103.5 22.5t87.5 57.5q47 47 78.5 118.5t56.5 192.5q22 117 22 176q0 53 -16 96z" />
<glyph unicode="&#xf9;" horiz-adv-x="1095" d="M123 272q0 35 10 93l2 8l127 637h144l-125 -623q-10 -55 -11 -94q0 -86 51.5 -132t133.5 -46q33 0 74.5 10t85.5 40t82 85t55 141l122 619h146l-201 -1010h-141l20 113q-109 -125 -297 -125q-121 0 -199.5 75.5t-78.5 208.5zM494 1516h163l107 -310h-123z" />
<glyph unicode="&#xfa;" horiz-adv-x="1095" d="M123 272q0 35 10 93l2 8l127 637h144l-125 -623q-10 -55 -11 -94q0 -86 51.5 -132t133.5 -46q33 0 74.5 10t85.5 40t82 85t55 141l122 619h146l-201 -1010h-141l20 113q-109 -125 -297 -125q-121 0 -199.5 75.5t-78.5 208.5zM578 1206l229 310h172l-266 -310h-135z" />
<glyph unicode="&#xfb;" horiz-adv-x="1095" d="M123 272q0 35 10 93l2 8l127 637h144l-125 -623q-10 -55 -11 -94q0 -86 51.5 -132t133.5 -46q33 0 74.5 10t85.5 40t82 85t55 141l122 619h146l-201 -1010h-141l20 113q-109 -125 -297 -125q-121 0 -199.5 75.5t-78.5 208.5zM365 1217l307 313h133l184 -313h-129 l-131 217l-223 -217h-141z" />
<glyph unicode="&#xfc;" horiz-adv-x="1095" d="M123 272q0 35 10 93l2 8l127 637h144l-125 -623q-10 -55 -11 -94q0 -86 51.5 -132t133.5 -46q33 0 74.5 10t85.5 40t82 85t55 141l122 619h146l-201 -1010h-141l20 113q-109 -125 -297 -125q-121 0 -199.5 75.5t-78.5 208.5zM410 1223l34 180h144l-37 -180h-141z M819 1223l37 180h143l-34 -180h-146z" />
<glyph unicode="&#xfd;" horiz-adv-x="868" d="M-84 -430l27 127h43q70 0 105.5 27.5t76.5 105.5l100 193l-145 987h143l105 -813l417 813h158l-530 -987l-142 -265q-25 -45 -45 -73.5t-41 -46.5q-39 -35 -88 -51.5t-120 -16.5h-64zM457 1206l229 310h172l-266 -310h-135z" />
<glyph unicode="&#xfe;" horiz-adv-x="1062" d="M-14 -449l190 953l191 954h143l-113 -563q45 55 108.5 91t170.5 36q145 0 216 -85t71 -230q0 -86 -23 -201q-29 -147 -70 -248.5t-104 -165.5q-55 -55 -123 -79.5t-145 -24.5q-82 0 -149.5 32.5t-102.5 106.5l-117 -576h-143zM297 326q0 -96 42 -153.5t140 -57.5 q74 0 128.5 30.5t90 84t58 121t39.5 155.5q10 53 16 97t6 81q0 96 -41 153.5t-139 57.5q-74 0 -128 -29.5t-91 -83t-59.5 -122t-39.5 -154.5q-10 -51 -16 -97.5t-6 -82.5z" />
<glyph unicode="&#xff;" horiz-adv-x="868" d="M-84 -430l27 127h43q70 0 105.5 27.5t76.5 105.5l100 193l-145 987h143l105 -813l417 813h158l-530 -987l-142 -265q-25 -45 -45 -73.5t-41 -46.5q-39 -35 -88 -51.5t-120 -16.5h-64zM295 1223l35 180h143l-37 -180h-141zM705 1223l36 180h144l-35 -180h-145z" />
<glyph unicode="&#x152;" horiz-adv-x="1916" d="M141 381q0 49 10.5 123t38.5 225q25 133 45.5 220t43 150.5t53 114t76.5 95.5q78 78 180 119.5t213 41.5q115 0 197.5 -47t125.5 -131l33 166h840l-27 -131h-696l-107 -526h600l-26 -129h-598l-111 -541h715l-27 -131h-852l27 135q-59 -68 -151.5 -107.5t-200.5 -39.5 q-172 0 -287 107.5t-115 285.5zM291 389q0 -127 76.5 -199.5t181.5 -72.5q168 0 289 125q29 29 50 65.5t40.5 92t38 133t41.5 196.5q4 20 10 51l4 21q20 104 28.5 164.5t8.5 103.5q0 127 -78 199.5t-182 72.5q-168 0 -289 -124q-29 -29 -50.5 -65t-41 -92t-38 -134 t-40.5 -197q-29 -147 -39 -220t-10 -120z" />
<glyph unicode="&#x153;" horiz-adv-x="1681" d="M102 324q0 43 6.5 92t12.5 90q29 158 77 253t113 154q61 55 135 82t154 27q102 0 180 -49t111 -150q66 106 158 152.5t196 46.5q156 0 242 -97t86 -249q0 -39 -6 -94.5t-19 -112.5h-651q-12 -63 -12 -127q0 -104 55 -166.5t164 -62.5q86 0 150.5 28.5t131.5 89.5l87 -96 q-156 -147 -381 -147q-106 0 -187.5 46t-120.5 154q-61 -100 -154 -150t-202 -50q-49 0 -104.5 14t-105.5 52t-83 104.5t-33 165.5zM244 328q0 -109 56 -161t138 -52q51 0 102.5 22.5t86.5 57.5q47 47 78.5 118.5t56.5 192.5q4 23 12 63q10 76 10 113q0 109 -56 161t-138 52 q-51 0 -101.5 -20.5t-87.5 -57.5q-47 -47 -78.5 -118.5t-56.5 -192.5q-23 -117 -22 -178zM918 573h505q0 16 4 45q7 38 7 58q0 111 -55.5 168t-139.5 57q-113 0 -195.5 -81t-125.5 -247z" />
<glyph unicode="&#x178;" horiz-adv-x="1003" d="M205 1458h155l193 -704l459 704h166l-578 -862l-121 -596h-149l123 606zM426 1606l35 180h143l-37 -180h-141zM836 1606l36 180h144l-35 -180h-145z" />
<glyph unicode="&#x2c6;" horiz-adv-x="972" d="M317 1217l308 313h133l184 -313h-129l-131 217l-223 -217h-142z" />
<glyph unicode="&#x2dc;" horiz-adv-x="972" d="M334 1341q55 51 100 74t96 23q76 0 144 -49q35 -25 54.5 -32t49.5 -7q51 0 127 69l62 -80q-53 -51 -100.5 -73.5t-98.5 -22.5q-74 0 -141 49q-35 25 -54.5 32t-50.5 7q-51 0 -127 -69z" />
<glyph unicode="&#x2000;" horiz-adv-x="1007" />
<glyph unicode="&#x2001;" horiz-adv-x="2015" />
<glyph unicode="&#x2002;" horiz-adv-x="1007" />
<glyph unicode="&#x2003;" horiz-adv-x="2015" />
<glyph unicode="&#x2004;" horiz-adv-x="671" />
<glyph unicode="&#x2005;" horiz-adv-x="503" />
<glyph unicode="&#x2006;" horiz-adv-x="335" />
<glyph unicode="&#x2007;" horiz-adv-x="335" />
<glyph unicode="&#x2008;" horiz-adv-x="251" />
<glyph unicode="&#x2009;" horiz-adv-x="403" />
<glyph unicode="&#x200a;" horiz-adv-x="111" />
<glyph unicode="&#x2010;" horiz-adv-x="829" d="M143 485l27 133h537l-27 -133h-537z" />
<glyph unicode="&#x2011;" horiz-adv-x="829" d="M143 485l27 133h537l-27 -133h-537z" />
<glyph unicode="&#x2012;" horiz-adv-x="829" d="M143 485l27 133h537l-27 -133h-537z" />
<glyph unicode="&#x2013;" horiz-adv-x="1015" d="M100 487l25 131h813l-27 -131h-811z" />
<glyph unicode="&#x2014;" horiz-adv-x="1783" d="M143 487l27 136h1493l-27 -136h-1493z" />
<glyph unicode="&#x2018;" horiz-adv-x="512" d="M328 1284l34 174l205 164l-67 -338h-172z" />
<glyph unicode="&#x2019;" horiz-adv-x="512" d="M295 1120l67 338h173l-35 -174z" />
<glyph unicode="&#x201a;" horiz-adv-x="512" d="M37 -164l67 338h175l-35 -174z" />
<glyph unicode="&#x201c;" horiz-adv-x="845" d="M328 1284l34 174l205 164l-67 -338h-172zM662 1284l34 174l205 164l-70 -338h-169z" />
<glyph unicode="&#x201d;" horiz-adv-x="845" d="M295 1120l67 338h173l-35 -174zM629 1120l67 338h172l-37 -174z" />
<glyph unicode="&#x201e;" horiz-adv-x="845" d="M37 -164l67 338h175l-35 -174zM371 -164l67 338h174l-37 -174z" />
<glyph unicode="&#x2022;" horiz-adv-x="1034" d="M236 684q0 137 90 227t227 90t227 -90t90 -227t-90 -227t-227 -90t-227 90t-90 227z" />
<glyph unicode="&#x2026;" horiz-adv-x="1476" d="M70 0l39 188h180l-37 -188h-182zM549 0l37 188h180l-37 -188h-180zM1024 0l39 188h180l-35 -188h-184z" />
<glyph unicode="&#x202f;" horiz-adv-x="403" />
<glyph unicode="&#x2039;" horiz-adv-x="638" d="M86 549l498 430l-39 -195l-283 -247l187 -248l-33 -172z" />
<glyph unicode="&#x203a;" horiz-adv-x="638" d="M76 117l39 194l282 248l-188 248l35 172l327 -432z" />
<glyph unicode="&#x205f;" horiz-adv-x="503" />
<glyph unicode="&#x20ac;" horiz-adv-x="1316" d="M94 539l17 96h131l37 201h-129l18 96h131q31 139 70 225t106 154q74 74 176.5 116.5t210.5 42.5q203 0 310.5 -117.5t107.5 -310.5h-150q0 137 -71.5 218t-196.5 81q-162 0 -284 -122q-45 -45 -75 -111t-57 -176h428l-18 -96h-430l-39 -201h430l-18 -96h-426 q-14 -84 -15 -154q0 -123 80 -195.5t195 -72.5q123 0 230.5 81t158.5 218h152q-27 -84 -74 -160t-116 -136.5t-160 -96t-203 -35.5q-174 0 -293 105.5t-119 287.5q0 29 4 66.5t12 91.5h-131z" />
<glyph unicode="&#x2122;" horiz-adv-x="1638" d="M238 1354l22 104h574l-21 -104h-227l-156 -770h-113l154 770h-233zM809 584l172 874h113l147 -530l358 530h117l-174 -874h-115l127 635l-276 -412h-111l-114 420l-131 -643h-113z" />
<glyph unicode="&#x25fc;" horiz-adv-x="1013" d="M0 0v1014h1014v-1014h-1014z" />
</font>
</defs>
</svg>
